<svg xmlns="http://www.w3.org/2000/svg" width="25" height="25" viewBox="0 0 25 25" fill="none">
  <path d="M8.12383 15.7538H10.5238V12.1538H14.7238V15.1538L18.9238 10.9538L14.7238 6.75381V9.75381H9.32383C8.98383 9.75381 8.69903 9.86901 8.46943 10.0994C8.23983 10.3298 8.12463 10.6146 8.12383 10.9538V15.7538ZM12.9238 24.1538C12.6238 24.1538 12.329 24.0938 12.0394 23.9738C11.7498 23.8538 11.4846 23.6738 11.2438 23.4338L1.64383 13.8338C1.40383 13.5938 1.22383 13.3286 1.10383 13.0382C0.983828 12.7478 0.923828 12.453 0.923828 12.1538C0.923828 11.8538 0.983828 11.559 1.10383 11.2694C1.22383 10.9798 1.40383 10.7146 1.64383 10.4738L11.2438 0.873809C11.4838 0.633809 11.749 0.453809 12.0394 0.333809C12.3298 0.213809 12.6246 0.153809 12.9238 0.153809C13.2238 0.153809 13.519 0.213809 13.8094 0.333809C14.0998 0.453809 14.3646 0.633809 14.6038 0.873809L24.2038 10.4738C24.4438 10.7138 24.6238 10.979 24.7438 11.2694C24.8638 11.5598 24.9238 11.8546 24.9238 12.1538C24.9238 12.4538 24.8638 12.749 24.7438 13.0394C24.6238 13.3298 24.4438 13.5946 24.2038 13.8338L14.6038 23.4338C14.3638 23.6738 14.0986 23.8538 13.8082 23.9738C13.5178 24.0938 13.223 24.1538 12.9238 24.1538Z" fill="#FEFEFE"/>
</svg>