<svg xmlns="http://www.w3.org/2000/svg" width="8" height="14" viewBox="0 0 8 14" fill="none">
  <path fill-rule="evenodd" clip-rule="evenodd" d="M7.40705 6.29266C7.59452 6.48019 7.69984 6.73449 7.69984 6.99966C7.69984 7.26482 7.59452 7.51913 7.40705 7.70666L1.75005 13.3637C1.6578 13.4592 1.54746 13.5353 1.42545 13.5878C1.30345 13.6402 1.17223 13.6678 1.03945 13.6689C0.906672 13.6701 0.774993 13.6448 0.652096 13.5945C0.5292 13.5442 0.417547 13.4699 0.323655 13.3761C0.229762 13.2822 0.155509 13.1705 0.105228 13.0476C0.0549472 12.9247 0.0296457 12.793 0.0307995 12.6603C0.0319533 12.5275 0.0595396 12.3963 0.111949 12.2743C0.164358 12.1522 0.240539 12.0419 0.33605 11.9497L5.28605 6.99966L0.33605 2.04966C0.153892 1.86105 0.0530972 1.60845 0.0553757 1.34626C0.0576541 1.08406 0.162823 0.833246 0.348231 0.647839C0.533639 0.462431 0.784452 0.357261 1.04665 0.354982C1.30885 0.352704 1.56145 0.453498 1.75005 0.635656L7.40705 6.29266Z" fill="black"/>
</svg>