<svg xmlns="http://www.w3.org/2000/svg" width="11" height="6" viewBox="0 0 11 6" fill="none">
  <path fill-rule="evenodd" clip-rule="evenodd" d="M6.09504 5.19465C5.96377 5.32588 5.78576 5.3996 5.60014 5.3996C5.41453 5.3996 5.23651 5.32588 5.10524 5.19465L1.14534 1.23475C1.07849 1.17018 1.02516 1.09294 0.988471 1.00754C0.951785 0.922132 0.932475 0.830278 0.931667 0.737333C0.930859 0.644387 0.948571 0.552212 0.983767 0.466184C1.01896 0.380157 1.07094 0.302 1.13667 0.236275C1.20239 0.17055 1.28055 0.118573 1.36657 0.0833764C1.4526 0.0481798 1.54478 0.0304688 1.63772 0.0312764C1.73067 0.0320841 1.82252 0.0513945 1.90793 0.0880808C1.99333 0.124767 2.07057 0.178094 2.13514 0.244952L5.60014 3.70995L9.06514 0.244952C9.19717 0.117441 9.37399 0.0468849 9.55752 0.0484798C9.74106 0.0500747 9.91663 0.123693 10.0464 0.253478C10.1762 0.383264 10.2498 0.558833 10.2514 0.742371C10.253 0.925909 10.1825 1.10273 10.0549 1.23475L6.09504 5.19465Z" fill="black"/>
</svg>